<svg width="340.0" height="440.0" viewBox="0 0 17 22" xmlns="http://www.w3.org/2000/svg">
<path d="M 2.4980392156862745,9.0 L 3.0,8.498039215686275 M 2.4980392156862745,9.0 L 2.4980392156862745,10.0 M 2.4980392156862745,10.0 L 2.4980392156862745,11.0 M 2.4980392156862745,11.0 L 2.4980392156862745,12.0 M 2.4980392156862745,12.0 L 2.4980392156862745,13.0 M 2.4980392156862745,13.0 L 3.0,13.501960784313725 M 3.4980392156862745,8.0 L 4.0,7.4980392156862745 M 3.4980392156862745,8.0 L 3.0,8.498039215686275 M 3.0,13.501960784313725 L 3.4980392156862745,14.0 M 3.4980392156862745,14.0 L 4.0,14.501960784313725 M 4.4980392156862745,7.0 L 5.0,6.4980392156862745 M 4.4980392156862745,7.0 L 4.0,7.4980392156862745 M 4.0,14.501960784313725 L 4.4980392156862745,15.0 M 4.4980392156862745,15.0 L 5.0,15.501960784313725 M 5.0,6.4980392156862745 L 6.0,6.4980392156862745 M 5.0,15.501960784313725 L 6.0,15.501960784313725 M 6.0,6.4980392156862745 L 7.0,6.4980392156862745 M 6.0,15.501960784313725 L 7.0,15.501960784313725 M 7.0,6.4980392156862745 L 8.0,6.4980392156862745 M 7.0,15.501960784313725 L 8.0,15.501960784313725 M 8.0,6.4980392156862745 L 9.0,6.4980392156862745 M 8.0,15.501960784313725 L 9.0,15.501960784313725 M 9.0,6.4980392156862745 L 10.0,6.4980392156862745 M 9.0,15.501960784313725 L 10.0,15.501960784313725 M 10.0,6.4980392156862745 L 11.0,6.4980392156862745 M 10.0,15.501960784313725 L 11.0,15.501960784313725 M 11.0,6.4980392156862745 L 12.0,6.4980392156862745 M 11.0,15.501960784313725 L 12.0,15.501960784313725 M 12.0,6.4980392156862745 L 12.501960784313725,7.0 M 12.501960784313725,7.0 L 13.0,7.4980392156862745 M 12.501960784313725,15.0 L 13.0,14.501960784313725 M 12.501960784313725,15.0 L 12.0,15.501960784313725 M 13.0,7.4980392156862745 L 13.501960784313725,8.0 M 13.501960784313725,8.0 L 14.0,8.498039215686275 M 13.501960784313725,14.0 L 14.0,13.501960784313725 M 13.501960784313725,14.0 L 13.0,14.501960784313725 M 14.0,8.498039215686275 L 14.501960784313725,9.0 M 14.501960784313725,9.0 L 14.501960784313725,10.0 M 14.501960784313725,10.0 L 14.501960784313725,11.0 M 14.501960784313725,11.0 L 14.501960784313725,12.0 M 14.501960784313725,12.0 L 14.501960784313725,13.0 M 14.501960784313725,13.0 L 14.0,13.501960784313725 " stroke="blue" stroke-width="0.1" fill="none" />
</svg>