<svg width="340.0" height="440.0" viewBox="0 0 34 44" xmlns="http://www.w3.org/2000/svg">
<path d="M 0.0,7.4980392156862745 L 1.0,7.4980392156862745 M 0.0,36.501960784313724 L 1.0,36.501960784313724 M 1.4980392156862745,7.0 L 2.0,6.4980392156862745 M 1.4980392156862745,7.0 L 1.0,7.4980392156862745 M 1.0,36.501960784313724 L 1.4980392156862745,37.0 M 1.4980392156862745,37.0 L 2.0,37.501960784313724 M 2.4980392156862745,6.0 L 3.0,5.4980392156862745 M 2.4980392156862745,6.0 L 2.0,6.4980392156862745 M 2.0,37.501960784313724 L 2.4980392156862745,38.0 M 2.4980392156862745,38.0 L 3.0,38.501960784313724 M 3.0,5.4980392156862745 L 4.0,5.4980392156862745 M 3.0,38.501960784313724 L 4.0,38.501960784313724 M 4.0,5.4980392156862745 L 5.0,5.4980392156862745 M 4.0,38.501960784313724 L 5.0,38.501960784313724 M 5.4980392156862745,5.0 L 6.0,4.4980392156862745 M 5.4980392156862745,5.0 L 5.0,5.4980392156862745 M 5.0,38.501960784313724 L 5.4980392156862745,39.0 M 5.4980392156862745,39.0 L 6.0,39.501960784313724 M 6.0,4.4980392156862745 L 7.0,4.4980392156862745 M 6.0,39.501960784313724 L 7.0,39.501960784313724 M 7.0,4.4980392156862745 L 8.0,4.4980392156862745 M 7.0,39.501960784313724 L 8.0,39.501960784313724 M 8.498039215686275,4.0 L 9.0,3.4980392156862745 M 8.498039215686275,4.0 L 8.0,4.4980392156862745 M 8.0,39.501960784313724 L 8.498039215686275,40.0 M 8.498039215686275,40.0 L 9.0,40.501960784313724 M 9.0,3.4980392156862745 L 10.0,3.4980392156862745 M 9.0,40.501960784313724 L 10.0,40.501960784313724 M 10.0,3.4980392156862745 L 11.0,3.4980392156862745 M 10.0,40.501960784313724 L 11.0,40.501960784313724 M 11.0,3.4980392156862745 L 12.0,3.4980392156862745 M 11.0,40.501960784313724 L 12.0,40.501960784313724 M 12.0,3.4980392156862745 L 13.0,3.4980392156862745 M 12.0,40.501960784313724 L 13.0,40.501960784313724 M 13.498039215686275,3.0 L 14.0,2.4980392156862745 M 13.498039215686275,3.0 L 13.0,3.4980392156862745 M 13.0,40.501960784313724 L 13.498039215686275,41.0 M 13.498039215686275,41.0 L 14.0,41.501960784313724 M 14.0,2.4980392156862745 L 15.0,2.4980392156862745 M 14.0,41.501960784313724 L 15.0,41.501960784313724 M 15.0,2.4980392156862745 L 16.0,2.4980392156862745 M 15.0,41.501960784313724 L 16.0,41.501960784313724 M 16.0,2.4980392156862745 L 17.0,2.4980392156862745 M 16.0,41.501960784313724 L 17.0,41.501960784313724 M 17.0,2.4980392156862745 L 18.0,2.4980392156862745 M 17.0,41.501960784313724 L 18.0,41.501960784313724 M 18.0,2.4980392156862745 L 19.0,2.4980392156862745 M 18.0,41.501960784313724 L 19.0,41.501960784313724 M 19.0,2.4980392156862745 L 20.0,2.4980392156862745 M 19.0,41.501960784313724 L 20.0,41.501960784313724 M 20.0,2.4980392156862745 L 20.501960784313724,3.0 M 20.501960784313724,3.0 L 21.0,3.4980392156862745 M 20.501960784313724,41.0 L 21.0,40.501960784313724 M 20.501960784313724,41.0 L 20.0,41.501960784313724 M 21.0,3.4980392156862745 L 22.0,3.4980392156862745 M 21.0,40.501960784313724 L 22.0,40.501960784313724 M 22.0,3.4980392156862745 L 23.0,3.4980392156862745 M 22.0,40.501960784313724 L 23.0,40.501960784313724 M 23.0,3.4980392156862745 L 24.0,3.4980392156862745 M 23.0,40.501960784313724 L 24.0,40.501960784313724 M 24.0,3.4980392156862745 L 25.0,3.4980392156862745 M 24.0,40.501960784313724 L 25.0,40.501960784313724 M 25.0,3.4980392156862745 L 25.501960784313724,4.0 M 25.501960784313724,4.0 L 26.0,4.4980392156862745 M 25.501960784313724,40.0 L 26.0,39.501960784313724 M 25.501960784313724,40.0 L 25.0,40.501960784313724 M 26.0,4.4980392156862745 L 27.0,4.4980392156862745 M 26.0,39.501960784313724 L 27.0,39.501960784313724 M 27.0,4.4980392156862745 L 28.0,4.4980392156862745 M 27.0,39.501960784313724 L 28.0,39.501960784313724 M 28.0,4.4980392156862745 L 28.501960784313724,5.0 M 28.501960784313724,5.0 L 29.0,5.4980392156862745 M 28.501960784313724,39.0 L 29.0,38.501960784313724 M 28.501960784313724,39.0 L 28.0,39.501960784313724 M 29.0,5.4980392156862745 L 30.0,5.4980392156862745 M 29.0,38.501960784313724 L 30.0,38.501960784313724 M 30.0,5.4980392156862745 L 31.0,5.4980392156862745 M 30.0,38.501960784313724 L 31.0,38.501960784313724 M 31.0,5.4980392156862745 L 31.501960784313724,6.0 M 31.501960784313724,6.0 L 32.0,6.4980392156862745 M 31.501960784313724,38.0 L 32.0,37.501960784313724 M 31.501960784313724,38.0 L 31.0,38.501960784313724 M 32.0,6.4980392156862745 L 32.501960784313724,7.0 M 32.501960784313724,7.0 L 33.0,7.4980392156862745 M 32.501960784313724,37.0 L 33.0,36.501960784313724 M 32.501960784313724,37.0 L 32.0,37.501960784313724 " stroke="blue" stroke-width="0.1" fill="none" />
</svg>