<?xml version="1.0" encoding="UTF-8" ?>
<svg width="600" height="600" viewBox="0 0 600 600" xmlns="http://www.w3.org/2000/svg">
<rect width="100%" height="100%" fill="white" />
<line x1="2.5350315096942606" y1="345.0" x2="5.0" y2="340.2941809807448" stroke="blue" stroke-width="1.5" />
<line x1="2.5350315096942606" y1="345.0" x2="0.12201816640799823" y2="350.0" stroke="blue" stroke-width="1.5" />
<line x1="0.12201816640799842" y1="350.0" x2="0.0" y2="350.27092685465493" stroke="blue" stroke-width="1.5" />
<line x1="0.0" y1="478.63955034480534" x2="1.0868301627698167" y2="480.0" stroke="blue" stroke-width="1.5" />
<line x1="1.0868301627698171" y1="480.0" x2="5.0" y2="484.43128413511107" stroke="blue" stroke-width="1.5" />
<line x1="7.841750241620021" y1="335.0" x2="10.0" y2="331.29907263945506" stroke="blue" stroke-width="1.5" />
<line x1="7.841750241620021" y1="335.0" x2="5.148395851687362" y2="340.0" stroke="blue" stroke-width="1.5" />
<line x1="5.148395851687362" y1="340.0" x2="5.0" y2="340.2941809807447" stroke="blue" stroke-width="1.5" />
<line x1="5.0" y1="484.43128413511107" x2="5.53435968676161" y2="485.0" stroke="blue" stroke-width="1.5" />
<line x1="5.53435968676161" y1="485.0" x2="10.0" y2="489.3654989848465" stroke="blue" stroke-width="1.5" />
<line x1="13.757558508103338" y1="325.0" x2="15.0" y2="323.08475295784007" stroke="blue" stroke-width="1.5" />
<line x1="13.757558508103338" y1="325.0" x2="10.733179865264729" y2="330.0" stroke="blue" stroke-width="1.5" />
<line x1="10.733179865264729" y1="330.0" x2="10.0" y2="331.29907263945506" stroke="blue" stroke-width="1.5" />
<line x1="10.0" y1="489.3654989848465" x2="10.695236436614394" y2="490.0" stroke="blue" stroke-width="1.5" />
<line x1="10.695236436614394" y1="490.0" x2="15.0" y2="493.65802107049626" stroke="blue" stroke-width="1.5" />
<line x1="16.95082453935542" y1="320.0" x2="20.0" y2="315.5393602696582" stroke="blue" stroke-width="1.5" />
<line x1="16.95082453935542" y1="320.0" x2="15.0" y2="323.08475295784007" stroke="blue" stroke-width="1.5" />
<line x1="15.0" y1="493.65802107049626" x2="16.702466577060278" y2="495.0" stroke="blue" stroke-width="1.5" />
<line x1="16.702466577060278" y1="495.0" x2="20.0" y2="497.4500544667473" stroke="blue" stroke-width="1.5" />
<line x1="23.9286097946676" y1="310.0" x2="25.0" y2="308.5961357670402" stroke="blue" stroke-width="1.5" />
<line x1="23.9286097946676" y1="310.0" x2="20.36092958852693" y2="315.0" stroke="blue" stroke-width="1.5" />
<line x1="20.36092958852693" y1="315.0" x2="20.0" y2="315.5393602696582" stroke="blue" stroke-width="1.5" />
<line x1="20.0" y1="497.4500544667473" x2="23.722287680017683" y2="500.0" stroke="blue" stroke-width="1.5" />
<line x1="23.722287680017683" y1="500.0" x2="25.0" y2="500.83423388105325" stroke="blue" stroke-width="1.5" />
<line x1="27.7157300186395" y1="305.0" x2="30.0" y2="302.1785151089739" stroke="blue" stroke-width="1.5" />
<line x1="27.7157300186395" y1="305.0" x2="25.0" y2="308.5961357670402" stroke="blue" stroke-width="1.5" />
<line x1="25.0" y1="500.83423388105325" x2="30.0" y2="503.86747946395144" stroke="blue" stroke-width="1.5" />
<line x1="31.75696975428938" y1="300.0" x2="35.0" y2="296.2367079374514" stroke="blue" stroke-width="1.5" />
<line x1="31.75696975428938" y1="300.0" x2="30.0" y2="302.1785151089739" stroke="blue" stroke-width="1.5" />
<line x1="30.0" y1="503.86747946395144" x2="32.02393440589985" y2="505.0" stroke="blue" stroke-width="1.5" />
<line x1="32.023934405899844" y1="505.0" x2="35.0" y2="506.6081916518344" stroke="blue" stroke-width="1.5" />
<line x1="36.06984465407297" y1="295.0" x2="40.0" y2="290.72945112329796" stroke="blue" stroke-width="1.5" />
<line x1="36.06984465407297" y1="295.0" x2="35.0" y2="296.2367079374514" stroke="blue" stroke-width="1.5" />
<line x1="35.0" y1="506.6081916518344" x2="40.0" y2="509.0927423696262" stroke="blue" stroke-width="1.5" />
<line x1="40.67970503837827" y1="290.0" x2="45.0" y2="285.6180506727311" stroke="blue" stroke-width="1.5" />
<line x1="40.67970503837827" y1="290.0" x2="40.0" y2="290.72945112329796" stroke="blue" stroke-width="1.5" />
<line x1="40.0" y1="509.0927423696262" x2="41.97628007442068" y2="510.0" stroke="blue" stroke-width="1.5" />
<line x1="41.97628007442068" y1="510.0" x2="45.0" y2="511.35659390340874" stroke="blue" stroke-width="1.5" />
<line x1="45.622786421184955" y1="285.0" x2="50.0" y2="280.8684865735821" stroke="blue" stroke-width="1.5" />
<line x1="45.62278642118495" y1="285.0" x2="45.0" y2="285.6180506727311" stroke="blue" stroke-width="1.5" />
<line x1="45.0" y1="511.35659390340874" x2="50.0" y2="513.4226744487567" stroke="blue" stroke-width="1.5" />
<line x1="50.9499014435338" y1="280.0" x2="55.0" y2="276.4530210531053" stroke="blue" stroke-width="1.5" />
<line x1="50.9499014435338" y1="280.0" x2="50.0" y2="280.8684865735821" stroke="blue" stroke-width="1.5" />
<line x1="50.0" y1="513.4226744487567" x2="54.178232678035606" y2="515.0" stroke="blue" stroke-width="1.5" />
<line x1="54.1782326780356" y1="515.0" x2="55.0" y2="515.3064781698544" stroke="blue" stroke-width="1.5" />
<line x1="56.73096961796612" y1="275.0" x2="60.0" y2="272.35119626660685" stroke="blue" stroke-width="1.5" />
<line x1="56.73096961796612" y1="275.0" x2="55.0" y2="276.4530210531053" stroke="blue" stroke-width="1.5" />
<line x1="55.0" y1="515.3064781698544" x2="60.0" y2="517.0459035710344" stroke="blue" stroke-width="1.5" />
<line x1="63.0606502935621" y1="270.0" x2="65.0" y2="268.5502433648853" stroke="blue" stroke-width="1.5" />
<line x1="63.0606502935621" y1="270.0" x2="60.0" y2="272.35119626660685" stroke="blue" stroke-width="1.5" />
<line x1="60.0" y1="517.0459035710344" x2="65.0" y2="518.6315228560172" stroke="blue" stroke-width="1.5" />
<line x1="65.0" y1="268.5502433648853" x2="70.0" y2="265.0429975543091" stroke="blue" stroke-width="1.5" />
<line x1="65.0" y1="518.6315228560172" x2="69.73750907509645" y2="520.0" stroke="blue" stroke-width="1.5" />
<line x1="69.73750907509645" y1="520.0" x2="70.0" y2="520.075862908793" stroke="blue" stroke-width="1.5" />
<line x1="70.06424426016522" y1="265.0" x2="75.0" y2="261.747263561288" stroke="blue" stroke-width="1.5" />
<line x1="70.06424426016522" y1="265.0" x2="70.0" y2="265.0429975543091" stroke="blue" stroke-width="1.5" />
<line x1="70.0" y1="520.075862908793" x2="75.0" y2="521.4220315643972" stroke="blue" stroke-width="1.5" />
<line x1="77.8844683024473" y1="260.0" x2="80.0" y2="258.7270334154712" stroke="blue" stroke-width="1.5" />
<line x1="77.8844683024473" y1="260.0" x2="75.0" y2="261.747263561288" stroke="blue" stroke-width="1.5" />
<line x1="75.0" y1="521.4220315643972" x2="80.0" y2="522.646180081835" stroke="blue" stroke-width="1.5" />
<line x1="80.0" y1="258.7270334154712" x2="85.0" y2="255.93973610652594" stroke="blue" stroke-width="1.5" />
<line x1="80.0" y1="522.646180081835" x2="85.0" y2="523.7550247979979" stroke="blue" stroke-width="1.5" />
<line x1="86.8288757295126" y1="255.0" x2="90.0" y2="253.3598248124689" stroke="blue" stroke-width="1.5" />
<line x1="86.8288757295126" y1="255.0" x2="85.0" y2="255.93973610652594" stroke="blue" stroke-width="1.5" />
<line x1="85.0" y1="523.7550247979979" x2="90.0" y2="524.7544273774996" stroke="blue" stroke-width="1.5" />
<line x1="90.0" y1="253.3598248124689" x2="95.0" y2="251.01050645700818" stroke="blue" stroke-width="1.5" />
<line x1="90.0" y1="524.7544273774996" x2="91.35234957643011" y2="525.0" stroke="blue" stroke-width="1.5" />
<line x1="91.35234957643011" y1="525.0" x2="95.0" y2="525.6746343161141" stroke="blue" stroke-width="1.5" />
<line x1="97.36853465022207" y1="250.0" x2="100.0" y2="248.85457630693963" stroke="blue" stroke-width="1.5" />
<line x1="97.36853465022207" y1="250.0" x2="95.0" y2="251.01050645700818" stroke="blue" stroke-width="1.5" />
<line x1="95.0" y1="525.6746343161141" x2="100.0" y2="526.5040902990005" stroke="blue" stroke-width="1.5" />
<line x1="100.0" y1="248.85457630693963" x2="105.0" y2="246.8855178417964" stroke="blue" stroke-width="1.5" />
<line x1="100.0" y1="526.5040902990005" x2="105.0" y2="527.237059316127" stroke="blue" stroke-width="1.5" />
<line x1="105.0" y1="246.8855178417964" x2="110.0" y2="245.15341330922317" stroke="blue" stroke-width="1.5" />
<line x1="105.0" y1="527.237059316127" x2="110.0" y2="527.8761683959393" stroke="blue" stroke-width="1.5" />
<line x1="110.49114869189998" y1="245.0" x2="115.0" y2="243.53614848509443" stroke="blue" stroke-width="1.5" />
<line x1="110.49114869189998" y1="245.0" x2="110.0" y2="245.15341330922317" stroke="blue" stroke-width="1.5" />
<line x1="110.0" y1="527.8761683959393" x2="115.0" y2="528.4235646295359" stroke="blue" stroke-width="1.5" />
<line x1="115.0" y1="243.53614848509443" x2="120.0" y2="242.120261719073" stroke="blue" stroke-width="1.5" />
<line x1="115.0" y1="528.4235646295359" x2="120.0" y2="528.8809536637875" stroke="blue" stroke-width="1.5" />
<line x1="120.0" y1="242.120261719073" x2="125.0" y2="240.9032063850637" stroke="blue" stroke-width="1.5" />
<line x1="120.0" y1="528.8809536637875" x2="125.0" y2="529.2496238452705" stroke="blue" stroke-width="1.5" />
<line x1="129.36664854936302" y1="240.0" x2="130.0" y2="239.861499031583" stroke="blue" stroke-width="1.5" />
<line x1="129.36664854936302" y1="240.0" x2="125.0" y2="240.9032063850637" stroke="blue" stroke-width="1.5" />
<line x1="125.0" y1="529.2496238452705" x2="130.0" y2="529.5304588485936" stroke="blue" stroke-width="1.5" />
<line x1="130.0" y1="239.861499031583" x2="135.0" y2="238.93275874249926" stroke="blue" stroke-width="1.5" />
<line x1="130.0" y1="529.5304588485936" x2="135.0" y2="529.7239421475243" stroke="blue" stroke-width="1.5" />
<line x1="135.0" y1="238.93275874249926" x2="140.0" y2="238.17958328742048" stroke="blue" stroke-width="1.5" />
<line x1="135.0" y1="529.7239421475243" x2="140.0" y2="529.8301569878532" stroke="blue" stroke-width="1.5" />
<line x1="140.0" y1="238.17958328742048" x2="145.0" y2="237.59351856220923" stroke="blue" stroke-width="1.5" />
<line x1="140.0" y1="529.8301569878532" x2="145.0" y2="529.8487856274489" stroke="blue" stroke-width="1.5" />
<line x1="145.0" y1="237.59351856220923" x2="150.0" y2="237.16747510815566" stroke="blue" stroke-width="1.5" />
<line x1="145.0" y1="529.8487856274489" x2="150.0" y2="529.7791115631875" stroke="blue" stroke-width="1.5" />
<line x1="150.0" y1="237.16747510815566" x2="155.0" y2="236.89574994164056" stroke="blue" stroke-width="1.5" />
<line x1="150.0" y1="529.7791115631875" x2="155.0" y2="529.620028310204" stroke="blue" stroke-width="1.5" />
<line x1="155.0" y1="236.89574994164056" x2="160.0" y2="236.77400654274246" stroke="blue" stroke-width="1.5" />
<line x1="155.0" y1="529.620028310204" x2="160.0" y2="529.3700580748069" stroke="blue" stroke-width="1.5" />
<line x1="160.0" y1="236.77400654274246" x2="165.0" y2="236.79921126261655" stroke="blue" stroke-width="1.5" />
<line x1="160.0" y1="529.3700580748069" x2="165.0" y2="529.0273833970779" stroke="blue" stroke-width="1.5" />
<line x1="165.0" y1="236.79921126261655" x2="170.0" y2="236.96952440245587" stroke="blue" stroke-width="1.5" />
<line x1="165.0" y1="529.0273833970779" x2="170.0" y2="528.5898945489462" stroke="blue" stroke-width="1.5" />
<line x1="170.0" y1="236.96952440245587" x2="175.0" y2="237.2841441696127" stroke="blue" stroke-width="1.5" />
<line x1="170.0" y1="528.5898945489462" x2="175.0" y2="528.0552551615674" stroke="blue" stroke-width="1.5" />
<line x1="175.0" y1="237.2841441696127" x2="180.0" y2="237.7431017103411" stroke="blue" stroke-width="1.5" />
<line x1="175.0" y1="528.0552551615674" x2="180.0" y2="527.420988212778" stroke="blue" stroke-width="1.5" />
<line x1="180.0" y1="237.7431017103411" x2="185.0" y2="238.34700555037594" stroke="blue" stroke-width="1.5" />
<line x1="180.0" y1="527.420988212778" x2="185.0" y2="526.6845841103564" stroke="blue" stroke-width="1.5" />
<line x1="185.0" y1="238.34700555037594" x2="190.0" y2="239.09673415809146" stroke="blue" stroke-width="1.5" />
<line x1="185.0" y1="526.6845841103564" x2="190.0" y2="525.8436321290033" stroke="blue" stroke-width="1.5" />
<line x1="190.0" y1="239.09673415809146" x2="195.0" y2="239.9930761128353" stroke="blue" stroke-width="1.5" />
<line x1="194.46006568512473" y1="525.0" x2="195.0" y2="524.9009448435827" stroke="blue" stroke-width="1.5" />
<line x1="194.46006568512473" y1="525.0" x2="190.0" y2="525.8436321290033" stroke="blue" stroke-width="1.5" />
<line x1="195.0" y1="239.9930761128353" x2="195.03419116824884" y2="240.0" stroke="blue" stroke-width="1.5" />
<line x1="195.03419116824884" y1="240.0" x2="200.0" y2="240.9686026494446" stroke="blue" stroke-width="1.5" />
<line x1="195.0" y1="524.9009448435827" x2="200.0" y2="523.8934521302759" stroke="blue" stroke-width="1.5" />
<line x1="200.0" y1="240.9686026494446" x2="205.0" y2="242.08620523284574" stroke="blue" stroke-width="1.5" />
<line x1="200.0" y1="523.8934521302759" x2="205.0" y2="522.7776388963536" stroke="blue" stroke-width="1.5" />
<line x1="205.0" y1="242.08620523284574" x2="210.0" y2="243.34596312016347" stroke="blue" stroke-width="1.5" />
<line x1="205.0" y1="522.7776388963536" x2="210.0" y2="521.5523323112949" stroke="blue" stroke-width="1.5" />
<line x1="210.0" y1="243.34596312016347" x2="215.0" y2="244.74553002056254" stroke="blue" stroke-width="1.5" />
<line x1="210.0" y1="521.5523323112949" x2="215.0" y2="520.2174515595104" stroke="blue" stroke-width="1.5" />
<line x1="215.0" y1="244.74553002056254" x2="215.8570118320207" y2="245.0" stroke="blue" stroke-width="1.5" />
<line x1="215.8570118320207" y1="245.0" x2="220.0" y2="246.21026235988134" stroke="blue" stroke-width="1.5" />
<line x1="215.77022358799408" y1="520.0" x2="220.0" y2="518.8231913924988" stroke="blue" stroke-width="1.5" />
<line x1="215.77022358799408" y1="520.0" x2="215.0" y2="520.2174515595104" stroke="blue" stroke-width="1.5" />
<line x1="220.0" y1="246.21026235988134" x2="225.0" y2="247.79040439719842" stroke="blue" stroke-width="1.5" />
<line x1="220.0" y1="518.8231913924988" x2="225.0" y2="517.3303208636324" stroke="blue" stroke-width="1.5" />
<line x1="225.0" y1="247.79040439719842" x2="230.0" y2="249.49055902381122" stroke="blue" stroke-width="1.5" />
<line x1="225.0" y1="517.3303208636324" x2="230.0" y2="515.7336666676256" stroke="blue" stroke-width="1.5" />
<line x1="230.0" y1="249.49055902381124" x2="231.45520352276108" y2="250.0" stroke="blue" stroke-width="1.5" />
<line x1="231.45520352276108" y1="250.0" x2="235.0" y2="251.23855026390623" stroke="blue" stroke-width="1.5" />
<line x1="232.20104423060442" y1="515.0" x2="235.0" y2="514.0720978088034" stroke="blue" stroke-width="1.5" />
<line x1="232.20104423060442" y1="515.0" x2="230.0" y2="515.7336666676256" stroke="blue" stroke-width="1.5" />
<line x1="235.0" y1="251.23855026390623" x2="240.0" y2="253.05646653830763" stroke="blue" stroke-width="1.5" />
<line x1="235.0" y1="514.0720978088034" x2="240.0" y2="512.3434145392127" stroke="blue" stroke-width="1.5" />
<line x1="240.0" y1="253.05646653830763" x2="245.0" y2="254.94494669692466" stroke="blue" stroke-width="1.5" />
<line x1="240.0" y1="512.3434145392127" x2="245.0" y2="510.53234154246695" stroke="blue" stroke-width="1.5" />
<line x1="245.0" y1="254.94494669692466" x2="245.14868539197496" y2="255.0" stroke="blue" stroke-width="1.5" />
<line x1="245.14868539197496" y1="255.0" x2="250.0" y2="256.81135376773653" stroke="blue" stroke-width="1.5" />
<line x1="246.44640150661698" y1="510.0" x2="250.0" y2="508.68989778830814" stroke="blue" stroke-width="1.5" />
<line x1="246.44640150661698" y1="510.0" x2="245.0" y2="510.53234154246695" stroke="blue" stroke-width="1.5" />
<line x1="250.0" y1="256.81135376773653" x2="255.0" y2="258.69277315396636" stroke="blue" stroke-width="1.5" />
<line x1="250.0" y1="508.68989778830814" x2="255.0" y2="506.8062622341536" stroke="blue" stroke-width="1.5" />
<line x1="255.0" y1="258.69277315396636" x2="258.5596214916492" y2="260.0" stroke="blue" stroke-width="1.5" />
<line x1="258.5596214916492" y1="260.0" x2="260.0" y2="260.53618335156125" stroke="blue" stroke-width="1.5" />
<line x1="259.71447980276577" y1="505.0" x2="260.0" y2="504.89003330234505" stroke="blue" stroke-width="1.5" />
<line x1="259.71447980276577" y1="505.0" x2="255.0" y2="506.8062622341536" stroke="blue" stroke-width="1.5" />
<line x1="260.0" y1="260.53618335156125" x2="265.0" y2="262.2843647839425" stroke="blue" stroke-width="1.5" />
<line x1="260.0" y1="504.89003330234505" x2="265.0" y2="503.00027237177875" stroke="blue" stroke-width="1.5" />
<line x1="265.0" y1="262.2843647839425" x2="270.0" y2="263.92470879169565" stroke="blue" stroke-width="1.5" />
<line x1="265.0" y1="503.00027237177875" x2="270.0" y2="501.1219608074542" stroke="blue" stroke-width="1.5" />
<line x1="270.0" y1="263.92470879169565" x2="273.65975703060246" y2="265.0" stroke="blue" stroke-width="1.5" />
<line x1="273.65975703060246" y1="265.0" x2="275.0" y2="265.3986546248803" stroke="blue" stroke-width="1.5" />
<line x1="273.08159720407656" y1="500.0" x2="275.0" y2="499.29835001377484" stroke="blue" stroke-width="1.5" />
<line x1="273.08159720407656" y1="500.0" x2="270.0" y2="501.12196080745423" stroke="blue" stroke-width="1.5" />
<line x1="275.0" y1="265.3986546248803" x2="280.0" y2="266.6505365842194" stroke="blue" stroke-width="1.5" />
<line x1="275.0" y1="499.29835001377484" x2="280.0" y2="497.56523770924025" stroke="blue" stroke-width="1.5" />
<line x1="280.0" y1="266.6505365842194" x2="285.0" y2="267.65084389129026" stroke="blue" stroke-width="1.5" />
<line x1="280.0" y1="497.56523770924025" x2="285.0" y2="495.9380236030043" stroke="blue" stroke-width="1.5" />
<line x1="285.0" y1="267.65084389129026" x2="290.0" y2="268.3578149675161" stroke="blue" stroke-width="1.5" />
<line x1="288.1634817848024" y1="495.0" x2="290.0" y2="494.4573320530197" stroke="blue" stroke-width="1.5" />
<line x1="288.1634817848024" y1="495.0" x2="285.0" y2="495.9380236030043" stroke="blue" stroke-width="1.5" />
<line x1="290.0" y1="268.3578149675161" x2="295.0" y2="268.7403528242803" stroke="blue" stroke-width="1.5" />
<line x1="290.0" y1="494.4573320530197" x2="295.0" y2="493.15668271279304" stroke="blue" stroke-width="1.5" />
<line x1="295.0" y1="268.7403528242803" x2="300.0" y2="268.7806970464748" stroke="blue" stroke-width="1.5" />
<line x1="295.0" y1="493.15668271279304" x2="300.0" y2="492.0510252600121" stroke="blue" stroke-width="1.5" />
<line x1="300.0" y1="268.7806970464748" x2="305.0" y2="268.47612666897345" stroke="blue" stroke-width="1.5" />
<line x1="300.0" y1="492.0510252600121" x2="305.0" y2="491.160413541092" stroke="blue" stroke-width="1.5" />
<line x1="305.0" y1="268.47612666897345" x2="310.0" y2="267.83943447403396" stroke="blue" stroke-width="1.5" />
<line x1="305.0" y1="491.160413541092" x2="310.0" y2="490.49680487736237" stroke="blue" stroke-width="1.5" />
<line x1="310.0" y1="267.83943447403396" x2="315.0" y2="266.8980776451666" stroke="blue" stroke-width="1.5" />
<line x1="310.0" y1="490.49680487736237" x2="315.0" y2="490.0635203593828" stroke="blue" stroke-width="1.5" />
<line x1="315.0" y1="266.8980776451666" x2="320.0" y2="265.692099349142" stroke="blue" stroke-width="1.5" />
<line x1="316.50195102365035" y1="490.0" x2="320.0" y2="489.8581448919282" stroke="blue" stroke-width="1.5" />
<line x1="316.50195102365035" y1="490.0" x2="315.0" y2="490.0635203593828" stroke="blue" stroke-width="1.5" />
<line x1="322.385251431322" y1="265.0" x2="325.0" y2="264.25528424054653" stroke="blue" stroke-width="1.5" />
<line x1="322.385251431322" y1="265.0" x2="320.0" y2="265.692099349142" stroke="blue" stroke-width="1.5" />
<line x1="320.0" y1="489.8581448919282" x2="325.0" y2="489.8624033488699" stroke="blue" stroke-width="1.5" />
<line x1="325.0" y1="264.25528424054653" x2="330.0" y2="262.6327114679296" stroke="blue" stroke-width="1.5" />
<line x1="325.0" y1="489.8624033488699" x2="328.5516657863426" y2="490.0" stroke="blue" stroke-width="1.5" />
<line x1="328.5516657863426" y1="490.0" x2="330.0" y2="490.0556045023698" stroke="blue" stroke-width="1.5" />
<line x1="330.0" y1="262.6327114679296" x2="335.0" y2="260.8928936389232" stroke="blue" stroke-width="1.5" />
<line x1="330.0" y1="490.0556045023698" x2="335.0" y2="490.4196437292634" stroke="blue" stroke-width="1.5" />
<line x1="337.4101039160763" y1="260.0" x2="340.0" y2="259.0584342902712" stroke="blue" stroke-width="1.5" />
<line x1="337.4101039160763" y1="260.0" x2="335.0" y2="260.8928936389232" stroke="blue" stroke-width="1.5" />
<line x1="335.0" y1="490.4196437292634" x2="340.0" y2="490.92325019652" stroke="blue" stroke-width="1.5" />
<line x1="340.0" y1="259.0584342902712" x2="345.0" y2="257.1686746291381" stroke="blue" stroke-width="1.5" />
<line x1="340.0" y1="490.92325019652" x2="345.0" y2="491.5365760777066" stroke="blue" stroke-width="1.5" />
<line x1="345.0" y1="257.1686746291381" x2="350.0" y2="255.297262104639" stroke="blue" stroke-width="1.5" />
<line x1="345.0" y1="491.5365760777066" x2="350.0" y2="492.2295776749926" stroke="blue" stroke-width="1.5" />
<line x1="350.7791545295449" y1="255.0" x2="355.0" y2="253.4063113803174" stroke="blue" stroke-width="1.5" />
<line x1="350.7791545295449" y1="255.0" x2="350.0" y2="255.297262104639" stroke="blue" stroke-width="1.5" />
<line x1="350.0" y1="492.2295776749926" x2="355.0" y2="492.9732902909146" stroke="blue" stroke-width="1.5" />
<line x1="355.0" y1="253.4063113803174" x2="360.0" y2="251.57834871351986" stroke="blue" stroke-width="1.5" />
<line x1="355.0" y1="492.9732902909146" x2="360.0" y2="493.74080403806386" stroke="blue" stroke-width="1.5" />
<line x1="364.5530956556418" y1="250.0" x2="365.0" y2="249.84494755950698" stroke="blue" stroke-width="1.5" />
<line x1="364.5530956556418" y1="250.0" x2="360.0" y2="251.57834871351986" stroke="blue" stroke-width="1.5" />
<line x1="360.0" y1="493.74080403806386" x2="365.0" y2="494.50792895640376" stroke="blue" stroke-width="1.5" />
<line x1="365.0" y1="249.84494755950698" x2="370.0" y2="248.1368871074798" stroke="blue" stroke-width="1.5" />
<line x1="365.0" y1="494.50792895640376" x2="368.2438614416826" y2="495.0" stroke="blue" stroke-width="1.5" />
<line x1="368.2438614416826" y1="495.0" x2="370.0" y2="495.26920693774684" stroke="blue" stroke-width="1.5" />
<line x1="370.0" y1="248.1368871074798" x2="375.0" y2="246.55977598277036" stroke="blue" stroke-width="1.5" />
<line x1="370.0" y1="495.26920693774684" x2="375.0" y2="496.02352474572155" stroke="blue" stroke-width="1.5" />
<line x1="375.0" y1="246.55977598277036" x2="380.0" y2="245.12469705570985" stroke="blue" stroke-width="1.5" />
<line x1="375.0" y1="496.02352474572155" x2="380.0" y2="496.7263830781723" stroke="blue" stroke-width="1.5" />
<line x1="380.46191063103277" y1="245.0" x2="385.0" y2="243.744428232145" stroke="blue" stroke-width="1.5" />
<line x1="380.46191063103277" y1="245.0" x2="380.0" y2="245.12469705570985" stroke="blue" stroke-width="1.5" />
<line x1="380.0" y1="496.7263830781723" x2="385.0" y2="497.3640493556606" stroke="blue" stroke-width="1.5" />
<line x1="385.0" y1="243.744428232145" x2="390.0" y2="242.50654627937018" stroke="blue" stroke-width="1.5" />
<line x1="385.0" y1="497.3640493556606" x2="390.0" y2="497.92523131609846" stroke="blue" stroke-width="1.5" />
<line x1="390.0" y1="242.50654627937018" x2="395.0" y2="241.42278189245323" stroke="blue" stroke-width="1.5" />
<line x1="390.0" y1="497.92523131609846" x2="395.0" y2="498.4007098964917" stroke="blue" stroke-width="1.5" />
<line x1="395.0" y1="241.42278189245323" x2="400.0" y2="240.4931652092941" stroke="blue" stroke-width="1.5" />
<line x1="395.0" y1="498.4007098964917" x2="400.0" y2="498.7829234235285" stroke="blue" stroke-width="1.5" />
<line x1="403.1289082035735" y1="240.0" x2="405.0" y2="239.68916212428897" stroke="blue" stroke-width="1.5" />
<line x1="403.1289082035735" y1="240.0" x2="400.0" y2="240.4931652092941" stroke="blue" stroke-width="1.5" />
<line x1="400.0" y1="498.7829234235285" x2="405.0" y2="499.0655284689008" stroke="blue" stroke-width="1.5" />
<line x1="405.0" y1="239.68916212428897" x2="410.0" y2="238.99963189957484" stroke="blue" stroke-width="1.5" />
<line x1="405.0" y1="499.0655284689008" x2="410.0" y2="499.2429565681076" stroke="blue" stroke-width="1.5" />
<line x1="410.0" y1="238.99963189957484" x2="415.0" y2="238.46913160097398" stroke="blue" stroke-width="1.5" />
<line x1="410.0" y1="499.2429565681076" x2="415.0" y2="499.30998057638334" stroke="blue" stroke-width="1.5" />
<line x1="415.0" y1="238.46913160097398" x2="420.0" y2="238.0972661975931" stroke="blue" stroke-width="1.5" />
<line x1="415.0" y1="499.30998057638334" x2="420.0" y2="499.2612999459066" stroke="blue" stroke-width="1.5" />
<line x1="420.0" y1="238.0972661975931" x2="425.0" y2="237.88430645146983" stroke="blue" stroke-width="1.5" />
<line x1="420.0" y1="499.2612999459066" x2="425.0" y2="499.09115068060214" stroke="blue" stroke-width="1.5" />
<line x1="425.0" y1="237.88430645146983" x2="430.0" y2="237.8316263795384" stroke="blue" stroke-width="1.5" />
<line x1="425.0" y1="499.09115068060214" x2="430.0" y2="498.7929430793074" stroke="blue" stroke-width="1.5" />
<line x1="430.0" y1="237.8316263795384" x2="435.0" y2="237.94208746440984" stroke="blue" stroke-width="1.5" />
<line x1="430.0" y1="498.7929430793074" x2="435.0" y2="498.35892848384066" stroke="blue" stroke-width="1.5" />
<line x1="435.0" y1="237.94208746440984" x2="440.0" y2="238.22037320533875" stroke="blue" stroke-width="1.5" />
<line x1="435.0" y1="498.35892848384066" x2="440.0" y2="497.77989495911606" stroke="blue" stroke-width="1.5" />
<line x1="440.0" y1="238.22037320533875" x2="445.0" y2="238.6732781821351" stroke="blue" stroke-width="1.5" />
<line x1="440.0" y1="497.77989495911606" x2="445.0" y2="497.0448910077483" stroke="blue" stroke-width="1.5" />
<line x1="445.0" y1="238.6732781821351" x2="450.0" y2="239.30995593775367" stroke="blue" stroke-width="1.5" />
<line x1="445.0" y1="497.0448910077483" x2="450.0" y2="496.1409759389377" stroke="blue" stroke-width="1.5" />
<line x1="450.0" y1="239.30995593775367" x2="454.1549661439145" y2="240.0" stroke="blue" stroke-width="1.5" />
<line x1="454.1549661439145" y1="240.0" x2="455.0" y2="240.12799098039144" stroke="blue" stroke-width="1.5" />
<line x1="450.0" y1="496.1409759389377" x2="455.0" y2="495.05299526998755" stroke="blue" stroke-width="1.5" />
<line x1="455.0" y1="240.12799098039144" x2="460.0" y2="241.06767058252524" stroke="blue" stroke-width="1.5" />
<line x1="455.20881905647" y1="495.0" x2="460.0" y2="493.8815966482882" stroke="blue" stroke-width="1.5" />
<line x1="455.20881905647" y1="495.0" x2="455.0" y2="495.05299526998755" stroke="blue" stroke-width="1.5" />
<line x1="460.0" y1="241.06767058252524" x2="465.0" y2="242.2156174982029" stroke="blue" stroke-width="1.5" />
<line x1="460.0" y1="493.8815966482882" x2="465.0" y2="492.5112564397305" stroke="blue" stroke-width="1.5" />
<line x1="465.0" y1="242.2156174982029" x2="470.0" y2="243.59261692822804" stroke="blue" stroke-width="1.5" />
<line x1="465.0" y1="492.5112564397305" x2="470.0" y2="490.9137082193443" stroke="blue" stroke-width="1.5" />
<line x1="470.0" y1="243.59261692822804" x2="474.33738736336073" y2="245.0" stroke="blue" stroke-width="1.5" />
<line x1="474.33738736336073" y1="245.0" x2="475.0" y2="245.2013588754255" stroke="blue" stroke-width="1.5" />
<line x1="472.5098505674268" y1="490.0" x2="475.0" y2="489.1507335572316" stroke="blue" stroke-width="1.5" />
<line x1="472.5098505674268" y1="490.0" x2="470.0" y2="490.9137082193443" stroke="blue" stroke-width="1.5" />
<line x1="475.0" y1="245.2013588754255" x2="480.0" y2="246.93419616402832" stroke="blue" stroke-width="1.5" />
<line x1="475.0" y1="489.1507335572316" x2="480.0" y2="487.20979238439844" stroke="blue" stroke-width="1.5" />
<line x1="480.0" y1="246.93419616402832" x2="485.0" y2="248.96184325774814" stroke="blue" stroke-width="1.5" />
<line x1="484.93485892113114" y1="485.0" x2="485.0" y2="484.9722592826897" stroke="blue" stroke-width="1.5" />
<line x1="484.93485892113114" y1="485.0" x2="480.0" y2="487.20979238439844" stroke="blue" stroke-width="1.5" />
<line x1="485.0" y1="248.96184325774814" x2="487.2665764834017" y2="250.0" stroke="blue" stroke-width="1.5" />
<line x1="487.2665764834017" y1="250.0" x2="490.0" y2="251.20210912034364" stroke="blue" stroke-width="1.5" />
<line x1="485.0" y1="484.9722592826897" x2="490.0" y2="482.62215032538876" stroke="blue" stroke-width="1.5" />
<line x1="490.0" y1="251.20210912034364" x2="495.0" y2="253.70177563181403" stroke="blue" stroke-width="1.5" />
<line x1="494.84080946824827" y1="480.0" x2="495.0" y2="479.91654017679747" stroke="blue" stroke-width="1.5" />
<line x1="494.84080946824827" y1="480.0" x2="490.0" y2="482.62215032538876" stroke="blue" stroke-width="1.5" />
<line x1="495.0" y1="253.70177563181403" x2="497.3186103833207" y2="255.0" stroke="blue" stroke-width="1.5" />
<line x1="497.3186103833207" y1="255.0" x2="500.0" y2="256.469486100096" stroke="blue" stroke-width="1.5" />
<line x1="495.0" y1="479.91654017679747" x2="500.0" y2="477.05056526971435" stroke="blue" stroke-width="1.5" />
<line x1="500.0" y1="256.469486100096" x2="505.0" y2="259.56389645591685" stroke="blue" stroke-width="1.5" />
<line x1="503.17369362021367" y1="475.0" x2="505.0" y2="473.8354640059693" stroke="blue" stroke-width="1.5" />
<line x1="503.17369362021367" y1="475.0" x2="500.0" y2="477.05056526971435" stroke="blue" stroke-width="1.5" />
<line x1="505.0" y1="259.56389645591685" x2="505.6494004677622" y2="260.0" stroke="blue" stroke-width="1.5" />
<line x1="505.6494004677622" y1="260.0" x2="510.0" y2="262.91913361240364" stroke="blue" stroke-width="1.5" />
<line x1="505.0" y1="473.8354640059693" x2="510.0" y2="470.294053536152" stroke="blue" stroke-width="1.5" />
<line x1="510.0" y1="262.91913361240364" x2="512.7916079487549" y2="265.0" stroke="blue" stroke-width="1.5" />
<line x1="512.7916079487549" y1="265.0" x2="515.0" y2="266.66705402156475" stroke="blue" stroke-width="1.5" />
<line x1="510.38589788799237" y1="470.0" x2="515.0" y2="466.45821027639676" stroke="blue" stroke-width="1.5" />
<line x1="510.38589788799237" y1="470.0" x2="510.0" y2="470.294053536152" stroke="blue" stroke-width="1.5" />
<line x1="515.0" y1="266.66705402156475" x2="519.0307032156848" y2="270.0" stroke="blue" stroke-width="1.5" />
<line x1="519.0307032156848" y1="270.0" x2="520.0" y2="270.8235132464852" stroke="blue" stroke-width="1.5" />
<line x1="516.7390053258677" y1="465.0" x2="520.0" y2="462.2079364336326" stroke="blue" stroke-width="1.5" />
<line x1="516.7390053258677" y1="465.0" x2="515.0" y2="466.45821027639676" stroke="blue" stroke-width="1.5" />
<line x1="520.0" y1="270.8235132464852" x2="524.5537713941757" y2="275.0" stroke="blue" stroke-width="1.5" />
<line x1="524.5537713941757" y1="275.0" x2="525.0" y2="275.4269692595435" stroke="blue" stroke-width="1.5" />
<line x1="522.3902449632624" y1="460.0" x2="525.0" y2="457.50281649191317" stroke="blue" stroke-width="1.5" />
<line x1="522.3902449632624" y1="460.0" x2="520.0" y2="462.2079364336326" stroke="blue" stroke-width="1.5" />
<line x1="525.0" y1="275.4269692595435" x2="529.4938528503848" y2="280.0" stroke="blue" stroke-width="1.5" />
<line x1="529.4938528503848" y1="280.0" x2="530.0" y2="280.54595726865625" stroke="blue" stroke-width="1.5" />
<line x1="527.4563619453571" y1="455.0" x2="530.0" y2="452.2744477529195" stroke="blue" stroke-width="1.5" />
<line x1="527.4563619453571" y1="455.0" x2="525.0" y2="457.50281649191317" stroke="blue" stroke-width="1.5" />
<line x1="530.0" y1="280.54595726865625" x2="533.9411748565313" y2="285.0" stroke="blue" stroke-width="1.5" />
<line x1="533.9411748565313" y1="285.0" x2="535.0" y2="286.2892072969725" stroke="blue" stroke-width="1.5" />
<line x1="532.0203354574726" y1="450.0" x2="535.0" y2="446.4168124892443" stroke="blue" stroke-width="1.5" />
<line x1="532.0203354574726" y1="450.0" x2="530.0" y2="452.2744477529195" stroke="blue" stroke-width="1.5" />
<line x1="535.0" y1="286.2892072969725" x2="537.9520590569261" y2="290.0" stroke="blue" stroke-width="1.5" />
<line x1="537.9520590569261" y1="290.0" x2="540.0" y2="292.8196557383167" stroke="blue" stroke-width="1.5" />
<line x1="539.8465845882037" y1="440.0" x2="540.0" y2="439.7787846587799" stroke="blue" stroke-width="1.5" />
<line x1="539.8465845882037" y1="440.0" x2="536.1366324726305" y2="445.0" stroke="blue" stroke-width="1.5" />
<line x1="536.1366324726305" y1="445.0" x2="535.0" y2="446.4168124892443" stroke="blue" stroke-width="1.5" />
<line x1="540.0" y1="292.8196557383167" x2="541.5559700262404" y2="295.0" stroke="blue" stroke-width="1.5" />
<line x1="541.5559700262404" y1="295.0" x2="544.779280223557" y2="300.0" stroke="blue" stroke-width="1.5" />
<line x1="544.779280223557" y1="300.0" x2="545.0" y2="300.3721348303094" stroke="blue" stroke-width="1.5" />
<line x1="543.2615859822184" y1="435.0" x2="545.0" y2="432.15454665769334" stroke="blue" stroke-width="1.5" />
<line x1="543.2615859822184" y1="435.0" x2="540.0" y2="439.7787846587799" stroke="blue" stroke-width="1.5" />
<line x1="545.0" y1="300.3721348303094" x2="547.7554112739498" y2="305.0" stroke="blue" stroke-width="1.5" />
<line x1="547.7554112739498" y1="305.0" x2="550.0" y2="309.3306530120989" stroke="blue" stroke-width="1.5" />
<line x1="549.0643984824261" y1="425.0" x2="550.0" y2="423.10234360916076" stroke="blue" stroke-width="1.5" />
<line x1="549.0643984824261" y1="425.0" x2="546.3127866161819" y2="430.0" stroke="blue" stroke-width="1.5" />
<line x1="546.3127866161819" y1="430.0" x2="545.0" y2="432.15454665769334" stroke="blue" stroke-width="1.5" />
<line x1="550.0" y1="309.3306530120989" x2="550.3527405447132" y2="310.0" stroke="blue" stroke-width="1.5" />
<line x1="550.3527405447132" y1="310.0" x2="552.7547457148544" y2="315.0" stroke="blue" stroke-width="1.5" />
<line x1="552.7547457148544" y1="315.0" x2="554.80441276906" y2="320.0" stroke="blue" stroke-width="1.5" />
<line x1="554.80441276906" y1="320.0" x2="555.0" y2="320.53686113186313" stroke="blue" stroke-width="1.5" />
<line x1="553.7696411022317" y1="415.0" x2="555.0" y2="411.8063232539099" stroke="blue" stroke-width="1.5" />
<line x1="553.7696411022317" y1="415.0" x2="551.5567445066689" y2="420.0" stroke="blue" stroke-width="1.5" />
<line x1="551.5567445066689" y1="420.0" x2="550.0" y2="423.10234360916076" stroke="blue" stroke-width="1.5" />
<line x1="555.0" y1="320.53686113186313" x2="556.7009758905967" y2="325.0" stroke="blue" stroke-width="1.5" />
<line x1="556.7009758905967" y1="325.0" x2="558.318769706982" y2="330.0" stroke="blue" stroke-width="1.5" />
<line x1="558.318769706982" y1="330.0" x2="559.6663363713262" y2="335.0" stroke="blue" stroke-width="1.5" />
<line x1="559.6663363713262" y1="335.0" x2="560.0" y2="336.47591681783416" stroke="blue" stroke-width="1.5" />
<line x1="558.9690096024889" y1="400.0" x2="560.0" y2="395.8321808250665" stroke="blue" stroke-width="1.5" />
<line x1="558.9690096024889" y1="400.0" x2="557.4855644353103" y2="405.0" stroke="blue" stroke-width="1.5" />
<line x1="557.4855644353103" y1="405.0" x2="555.7223096805441" y2="410.0" stroke="blue" stroke-width="1.5" />
<line x1="555.7223096805441" y1="410.0" x2="555.0" y2="411.8063232539099" stroke="blue" stroke-width="1.5" />
<line x1="560.0" y1="336.47591681783416" x2="560.8554863547947" y2="340.0" stroke="blue" stroke-width="1.5" />
<line x1="560.8554863547947" y1="340.0" x2="561.837502241901" y2="345.0" stroke="blue" stroke-width="1.5" />
<line x1="561.837502241901" y1="345.0" x2="562.5925943594799" y2="350.0" stroke="blue" stroke-width="1.5" />
<line x1="562.5925943594799" y1="350.0" x2="563.1341801623952" y2="355.0" stroke="blue" stroke-width="1.5" />
<line x1="563.1341801623952" y1="355.0" x2="563.472142834878" y2="360.0" stroke="blue" stroke-width="1.5" />
<line x1="563.472142834878" y1="360.0" x2="563.6127969077171" y2="365.0" stroke="blue" stroke-width="1.5" />
<line x1="563.6127969077171" y1="365.0" x2="563.5588771059183" y2="370.0" stroke="blue" stroke-width="1.5" />
<line x1="563.5588771059183" y1="370.0" x2="563.3095505164356" y2="375.0" stroke="blue" stroke-width="1.5" />
<line x1="563.3095505164356" y1="375.0" x2="562.8604524876152" y2="380.0" stroke="blue" stroke-width="1.5" />
<line x1="562.8604524876152" y1="380.0" x2="562.2037470052202" y2="385.0" stroke="blue" stroke-width="1.5" />
<line x1="562.2037470052202" y1="385.0" x2="561.3282126011401" y2="390.0" stroke="blue" stroke-width="1.5" />
<line x1="561.3282126011401" y1="390.0" x2="560.219355105157" y2="395.0" stroke="blue" stroke-width="1.5" />
<line x1="560.219355105157" y1="395.0" x2="560.0" y2="395.8321808250665" stroke="blue" stroke-width="1.5" />
<line x1="69.03941627544683" y1="380.0" x2="70.0" y2="375.1868052233636" stroke="red" stroke-width="3"/>
<line x1="69.03941627544683" y1="380.0" x2="68.30961382459834" y2="385.0" stroke="red" stroke-width="3"/>
<line x1="68.30961382459834" y1="385.0" x2="67.85249748163992" y2="390.0" stroke="red" stroke-width="3"/>
<line x1="67.85249748163992" y1="390.0" x2="67.67426289815204" y2="395.0" stroke="red" stroke-width="3"/>
<line x1="67.67426289815204" y1="395.0" x2="67.78181887641199" y2="400.0" stroke="red" stroke-width="3"/>
<line x1="67.78181887641199" y1="400.0" x2="68.18257329387764" y2="405.0" stroke="red" stroke-width="3"/>
<line x1="68.18257329387764" y1="405.0" x2="68.8841371320181" y2="410.0" stroke="red" stroke-width="3"/>
<line x1="68.8841371320181" y1="410.0" x2="69.89396271960835" y2="415.0" stroke="red" stroke-width="3"/>
<line x1="69.89396271960835" y1="415.0" x2="70.0" y2="415.40644665697005" stroke="red" stroke-width="3"/>
<line x1="74.81574230056857" y1="360.0" x2="75.0" y2="359.5745148045634" stroke="red" stroke-width="3"/>
<line x1="74.81574230056857" y1="360.0" x2="72.9533986285748" y2="365.0" stroke="red" stroke-width="3"/>
<line x1="72.9533986285748" y1="365.0" x2="71.36006502457113" y2="370.0" stroke="red" stroke-width="3"/>
<line x1="71.36006502457113" y1="370.0" x2="70.03834338998608" y2="375.0" stroke="red" stroke-width="3"/>
<line x1="70.03834338998608" y1="375.0" x2="70.0" y2="375.1868052233636" stroke="red" stroke-width="3"/>
<line x1="70.0" y1="415.40644665697005" x2="71.28834043253245" y2="420.0" stroke="red" stroke-width="3"/>
<line x1="71.28834043253245" y1="420.0" x2="73.0313420387855" y2="425.0" stroke="red" stroke-width="3"/>
<line x1="73.0313420387855" y1="425.0" x2="75.0" y2="429.7106512768426" stroke="red" stroke-width="3"/>
<line x1="79.56041171256054" y1="350.0" x2="80.0" y2="349.22518558015634" stroke="red" stroke-width="3"/>
<line x1="79.56041171256054" y1="350.0" x2="77.043182531164" y2="355.0" stroke="red" stroke-width="3"/>
<line x1="77.043182531164" y1="355.0" x2="75.0" y2="359.5745148045634" stroke="red" stroke-width="3"/>
<line x1="75.0" y1="429.7106512768426" x2="75.13025027030108" y2="430.0" stroke="red" stroke-width="3"/>
<line x1="75.13025027030108" y1="430.0" x2="77.72479176849549" y2="435.0" stroke="red" stroke-width="3"/>
<line x1="77.72479176849549" y1="435.0" x2="80.0" y2="438.835286665897" stroke="red" stroke-width="3"/>
<line x1="82.48304229113528" y1="345.0" x2="85.0" y2="341.1331366807749" stroke="red" stroke-width="3"/>
<line x1="82.48304229113528" y1="345.0" x2="80.0" y2="349.22518558015634" stroke="red" stroke-width="3"/>
<line x1="80.0" y1="438.835286665897" x2="80.7454793342231" y2="440.0" stroke="red" stroke-width="3"/>
<line x1="80.7454793342231" y1="440.0" x2="84.32188224535932" y2="445.0" stroke="red" stroke-width="3"/>
<line x1="84.32188224535932" y1="445.0" x2="85.0" y2="445.8585570500092" stroke="red" stroke-width="3"/>
<line x1="89.51105064372373" y1="335.0" x2="90.0" y2="334.4051511441192" stroke="red" stroke-width="3"/>
<line x1="89.51105064372373" y1="335.0" x2="85.76739903887153" y2="340.0" stroke="red" stroke-width="3"/>
<line x1="85.76739903887153" y1="340.0" x2="85.0" y2="341.1331366807749" stroke="red" stroke-width="3"/>
<line x1="85.0" y1="445.8585570500092" x2="88.533456159172" y2="450.0" stroke="red" stroke-width="3"/>
<line x1="88.533456159172" y1="450.0" x2="90.0" y2="451.57293637002016" stroke="red" stroke-width="3"/>
<line x1="93.7930340966509" y1="330.0" x2="95.0" y2="328.71462402781646" stroke="red" stroke-width="3"/>
<line x1="93.7930340966509" y1="330.0" x2="90.0" y2="334.4051511441192" stroke="red" stroke-width="3"/>
<line x1="90.0" y1="451.57293637002016" x2="93.45959013265308" y2="455.0" stroke="red" stroke-width="3"/>
<line x1="93.45959013265308" y1="455.0" x2="95.0" y2="456.4106496169851" stroke="red" stroke-width="3"/>
<line x1="98.67702883379863" y1="325.0" x2="100.0" y2="323.76925328178277" stroke="red" stroke-width="3"/>
<line x1="98.67702883379863" y1="325.0" x2="95.0" y2="328.71462402781646" stroke="red" stroke-width="3"/>
<line x1="95.0" y1="456.4106496169851" x2="99.25433804465393" y2="460.0" stroke="red" stroke-width="3"/>
<line x1="99.25433804465393" y1="460.0" x2="100.0" y2="460.58628267426553" stroke="red" stroke-width="3"/>
<line x1="104.30129702272515" y1="320.0" x2="105.0" y2="319.43356534218833" stroke="red" stroke-width="3"/>
<line x1="104.30129702272515" y1="320.0" x2="100.0" y2="323.76925328178277" stroke="red" stroke-width="3"/>
<line x1="100.0" y1="460.58628267426553" x2="105.0" y2="464.2016899054546" stroke="red" stroke-width="3"/>
<line x1="105.0" y1="319.43356534218833" x2="110.0" y2="315.649406120734" stroke="red" stroke-width="3"/>
<line x1="105.0" y1="464.2016899054546" x2="106.20739015824445" y2="465.0" stroke="red" stroke-width="3"/>
<line x1="106.20739015824445" y1="465.0" x2="110.0" y2="467.35705141930976" stroke="red" stroke-width="3"/>
<line x1="110.926884771226" y1="315.0" x2="115.0" y2="312.348916207135" stroke="red" stroke-width="3"/>
<line x1="110.926884771226" y1="315.0" x2="110.0" y2="315.649406120734" stroke="red" stroke-width="3"/>
<line x1="110.0" y1="467.35705141930976" x2="114.66973016130031" y2="470.0" stroke="red" stroke-width="3"/>
<line x1="114.66973016130031" y1="470.0" x2="115.0" y2="470.17652858309106" stroke="red" stroke-width="3"/>
<line x1="118.92756530499891" y1="310.0" x2="120.0" y2="309.40097876269675" stroke="red" stroke-width="3"/>
<line x1="118.92756530499891" y1="310.0" x2="115.0" y2="312.348916207135" stroke="red" stroke-width="3"/>
<line x1="115.0" y1="470.17652858309106" x2="120.0" y2="472.60011631062474" stroke="red" stroke-width="3"/>
<line x1="120.0" y1="309.40097876269675" x2="125.0" y2="306.8715029439157" stroke="red" stroke-width="3"/>
<line x1="120.0" y1="472.60011631062474" x2="125.0" y2="474.78105973532996" stroke="red" stroke-width="3"/>
<line x1="129.1203607851272" y1="305.0" x2="130.0" y2="304.6248044615152" stroke="red" stroke-width="3"/>
<line x1="129.1203607851272" y1="305.0" x2="125.0" y2="306.8715029439157" stroke="red" stroke-width="3"/>
<line x1="125.0" y1="474.78105973532996" x2="125.56366683372268" y2="475.0" stroke="red" stroke-width="3"/>
<line x1="125.56366683372268" y1="475.0" x2="130.0" y2="476.63814392006014" stroke="red" stroke-width="3"/>
<line x1="130.0" y1="304.6248044615152" x2="135.0" y2="302.7483866288046" stroke="red" stroke-width="3"/>
<line x1="130.0" y1="476.63814392006014" x2="135.0" y2="478.26798505641307" stroke="red" stroke-width="3"/>
<line x1="135.0" y1="302.7483866288046" x2="140.0" y2="301.1178430077012" stroke="red" stroke-width="3"/>
<line x1="135.0" y1="478.26798505641307" x2="140.0" y2="479.68612218884664" stroke="red" stroke-width="3"/>
<line x1="144.04875990544687" y1="300.0" x2="145.0" y2="299.7518591171281" stroke="red" stroke-width="3"/>
<line x1="144.04875990544687" y1="300.0" x2="140.0" y2="301.1178430077012" stroke="red" stroke-width="3"/>
<line x1="140.0" y1="479.68612218884664" x2="141.29992683897316" y2="480.0" stroke="red" stroke-width="3"/>
<line x1="141.29992683897316" y1="480.0" x2="145.0" y2="480.85284788884957" stroke="red" stroke-width="3"/>
<line x1="145.0" y1="299.7518591171281" x2="150.0" y2="298.68900704690185" stroke="red" stroke-width="3"/>
<line x1="145.0" y1="480.85284788884957" x2="150.0" y2="481.81110895894057" stroke="red" stroke-width="3"/>
<line x1="150.0" y1="298.68900704690185" x2="155.0" y2="297.85665063320147" stroke="red" stroke-width="3"/>
<line x1="150.0" y1="481.81110895894057" x2="155.0" y2="482.57929195088093" stroke="red" stroke-width="3"/>
<line x1="155.0" y1="297.85665063320147" x2="160.0" y2="297.2526683506514" stroke="red" stroke-width="3"/>
<line x1="155.0" y1="482.57929195088093" x2="160.0" y2="483.1601790128775" stroke="red" stroke-width="3"/>
<line x1="160.0" y1="297.2526683506514" x2="165.0" y2="296.87389441703334" stroke="red" stroke-width="3"/>
<line x1="160.0" y1="483.1601790128775" x2="165.0" y2="483.55642522813304" stroke="red" stroke-width="3"/>
<line x1="165.0" y1="296.87389441703334" x2="170.0" y2="296.71621245103375" stroke="red" stroke-width="3"/>
<line x1="165.0" y1="483.55642522813304" x2="170.0" y2="483.77057760565776" stroke="red" stroke-width="3"/>
<line x1="170.0" y1="296.71621245103375" x2="175.0" y2="296.7745742072903" stroke="red" stroke-width="3"/>
<line x1="170.0" y1="483.77057760565776" x2="175.0" y2="483.80512305086194" stroke="red" stroke-width="3"/>
<line x1="175.0" y1="296.7745742072903" x2="180.0" y2="297.04295335095975" stroke="red" stroke-width="3"/>
<line x1="175.0" y1="483.80512305086194" x2="180.0" y2="483.6625640079136" stroke="red" stroke-width="3"/>
<line x1="180.0" y1="297.04295335095975" x2="185.0" y2="297.51425587067394" stroke="red" stroke-width="3"/>
<line x1="180.0" y1="483.6625640079136" x2="185.0" y2="483.34551878379693" stroke="red" stroke-width="3"/>
<line x1="185.0" y1="297.51425587067394" x2="190.0" y2="298.1802147760951" stroke="red" stroke-width="3"/>
<line x1="185.0" y1="483.34551878379693" x2="190.0" y2="482.8568421166258" stroke="red" stroke-width="3"/>
<line x1="190.0" y1="298.1802147760951" x2="195.0" y2="299.0312967523452" stroke="red" stroke-width="3"/>
<line x1="190.0" y1="482.8568421166258" x2="195.0" y2="482.1997604192685" stroke="red" stroke-width="3"/>
<line x1="195.0" y1="299.0312967523452" x2="199.72725359589677" y2="300.0" stroke="red" stroke-width="3"/>
<line x1="199.7272535958968" y1="300.0" x2="200.0" y2="300.0608339175214" stroke="red" stroke-width="3"/>
<line x1="195.0" y1="482.1997604192685" x2="200.0" y2="481.3780153555004" stroke="red" stroke-width="3"/>
<line x1="200.0" y1="300.0608339175214" x2="205.0" y2="301.3370269340925" stroke="red" stroke-width="3"/>
<line x1="200.0" y1="481.3780153555004" x2="205.0" y2="480.3960089934864" stroke="red" stroke-width="3"/>
<line x1="205.0" y1="301.3370269340925" x2="210.0" y2="302.77465940230735" stroke="red" stroke-width="3"/>
<line x1="206.74798362653735" y1="480.0" x2="210.0" y2="479.2154975825117" stroke="red" stroke-width="3"/>
<line x1="206.74798362653735" y1="480.0" x2="205.0" y2="480.3960089934864" stroke="red" stroke-width="3"/>
<line x1="210.0" y1="302.77465940230735" x2="215.0" y2="304.3579949053651" stroke="red" stroke-width="3"/>
<line x1="210.0" y1="479.2154975825117" x2="215.0" y2="477.85181905128013" stroke="red" stroke-width="3"/>
<line x1="215.0" y1="304.3579949053651" x2="216.88809359028562" y2="305.0" stroke="red" stroke-width="3"/>
<line x1="216.88809359028562" y1="305.0" x2="220.0" y2="306.15602041810416" stroke="red" stroke-width="3"/>
<line x1="215.0" y1="477.85181905128013" x2="220.0" y2="476.3348468021265" stroke="red" stroke-width="3"/>
<line x1="220.0" y1="306.15602041810416" x2="225.0" y2="308.1264793685157" stroke="red" stroke-width="3"/>
<line x1="224.02001669433747" y1="475.0" x2="225.0" y2="474.65229258026494" stroke="red" stroke-width="3"/>
<line x1="224.02001669433747" y1="475.0" x2="220.0" y2="476.3348468021265" stroke="red" stroke-width="3"/>
<line x1="225.0" y1="308.1264793685157" x2="229.52715431907126" y2="310.0" stroke="red" stroke-width="3"/>
<line x1="229.52715431907126" y1="310.0" x2="230.0" y2="310.2143918627692" stroke="red" stroke-width="3"/>
<line x1="225.0" y1="474.65229258026494" x2="230.0" y2="472.73900293288284" stroke="red" stroke-width="3"/>
<line x1="230.0" y1="310.2143918627692" x2="235.0" y2="312.5488228051653" stroke="red" stroke-width="3"/>
<line x1="230.0" y1="472.73900293288284" x2="235.0" y2="470.6895868048888" stroke="red" stroke-width="3"/>
<line x1="235.0" y1="312.5488228051653" x2="240.0" y2="314.946693160006" stroke="red" stroke-width="3"/>
<line x1="236.59047165218752" y1="470.0" x2="240.0" y2="468.4154448570987" stroke="red" stroke-width="3"/>
<line x1="236.59047165218752" y1="470.0" x2="235.0" y2="470.6895868048888" stroke="red" stroke-width="3"/>
<line x1="240.0" y1="314.946693160006" x2="240.10996094098388" y2="315.0" stroke="red" stroke-width="3"/>
<line x1="240.10996094098388" y1="315.0" x2="245.0" y2="317.5996600651754" stroke="red" stroke-width="3"/>
<line x1="240.0" y1="468.4154448570987" x2="245.0" y2="465.9747066426565" stroke="red" stroke-width="3"/>
<line x1="245.0" y1="317.5996600651754" x2="249.48804276216063" y2="320.0" stroke="red" stroke-width="3"/>
<line x1="249.4880427621606" y1="320.0" x2="250.0" y2="320.3012697349999" stroke="red" stroke-width="3"/>
<line x1="246.9181224317792" y1="465.0" x2="250.0" y2="463.3166043088125" stroke="red" stroke-width="3"/>
<line x1="246.9181224317792" y1="465.0" x2="245.0" y2="465.9747066426565" stroke="red" stroke-width="3"/>
<line x1="250.0" y1="320.3012697349999" x2="255.0" y2="323.2232054473253" stroke="red" stroke-width="3"/>
<line x1="250.0" y1="463.3166043088125" x2="255.0" y2="460.4947954710414" stroke="red" stroke-width="3"/>
<line x1="255.0" y1="323.2232054473253" x2="258.07993029733245" y2="325.0" stroke="red" stroke-width="3"/>
<line x1="258.07993029733245" y1="325.0" x2="260.0" y2="326.2214235687236" stroke="red" stroke-width="3"/>
<line x1="255.85474841462218" y1="460.0" x2="260.0" y2="457.4141075477687" stroke="red" stroke-width="3"/>
<line x1="255.85474841462218" y1="460.0" x2="255.0" y2="460.4947954710414" stroke="red" stroke-width="3"/>
<line x1="260.0" y1="326.2214235687236" x2="265.0" y2="329.3308695074978" stroke="red" stroke-width="3"/>
<line x1="263.8046338791248" y1="455.0" x2="265.0" y2="454.17962400986295" stroke="red" stroke-width="3"/>
<line x1="263.8046338791248" y1="455.0" x2="260.0" y2="457.4141075477687" stroke="red" stroke-width="3"/>
<line x1="265.0" y1="329.3308695074978" x2="266.10878793509505" y2="330.0" stroke="red" stroke-width="3"/>
<line x1="266.10878793509505" y1="330.0" x2="270.0" y2="332.59713572617125" stroke="red" stroke-width="3"/>
<line x1="265.0" y1="454.17962400986295" x2="270.0" y2="450.7158017939691" stroke="red" stroke-width="3"/>
<line x1="270.0" y1="332.59713572617125" x2="273.74595515428257" y2="335.0" stroke="red" stroke-width="3"/>
<line x1="273.74595515428257" y1="335.0" x2="275.0" y2="335.8947159387715" stroke="red" stroke-width="3"/>
<line x1="271.0302490985579" y1="450.0" x2="275.0" y2="447.0105478831356" stroke="red" stroke-width="3"/>
<line x1="271.0302490985579" y1="450.0" x2="270.0" y2="450.7158017939691" stroke="red" stroke-width="3"/>
<line x1="275.0" y1="335.8947159387715" x2="280.0" y2="339.2926241982302" stroke="red" stroke-width="3"/>
<line x1="277.6890737974636" y1="445.0" x2="280.0" y2="443.1192681656947" stroke="red" stroke-width="3"/>
<line x1="277.6890737974636" y1="445.0" x2="275.0" y2="447.0105478831356" stroke="red" stroke-width="3"/>
<line x1="280.0" y1="339.2926241982302" x2="281.1024575823039" y2="340.0" stroke="red" stroke-width="3"/>
<line x1="281.1024575823039" y1="340.0" x2="285.0" y2="342.80000751818045" stroke="red" stroke-width="3"/>
<line x1="283.89775057137666" y1="440.0" x2="285.0" y2="439.0350720278138" stroke="red" stroke-width="3"/>
<line x1="283.89775057137666" y1="440.0" x2="280.0" y2="443.1192681656947" stroke="red" stroke-width="3"/>
<line x1="285.0" y1="342.80000751818045" x2="288.28199070120064" y2="345.0" stroke="red" stroke-width="3"/>
<line x1="288.28199070120064" y1="345.0" x2="290.0" y2="346.3029327708094" stroke="red" stroke-width="3"/>
<line x1="289.73729122216855" y1="435.0" x2="290.0" y2="434.75378426414716" stroke="red" stroke-width="3"/>
<line x1="289.73729122216855" y1="435.0" x2="285.0" y2="439.0350720278138" stroke="red" stroke-width="3"/>
<line x1="290.0" y1="346.3029327708094" x2="295.0" y2="349.8009669970897" stroke="red" stroke-width="3"/>
<line x1="290.0" y1="434.75378426414716" x2="295.0" y2="430.24309157491626" stroke="red" stroke-width="3"/>
<line x1="295.0" y1="349.8009669970897" x2="295.31234504955546" y2="350.0" stroke="red" stroke-width="3"/>
<line x1="295.31234504955546" y1="350.0" x2="300.0" y2="353.4316301013057" stroke="red" stroke-width="3"/>
<line x1="295.28251726121204" y1="430.0" x2="300.0" y2="425.5258776615462" stroke="red" stroke-width="3"/>
<line x1="295.28251726121204" y1="430.0" x2="295.0" y2="430.24309157491626" stroke="red" stroke-width="3"/>
<line x1="300.0" y1="353.4316301013057" x2="302.3942478640855" y2="355.0" stroke="red" stroke-width="3"/>
<line x1="302.3942478640855" y1="355.0" x2="305.0" y2="357.00447102478597" stroke="red" stroke-width="3"/>
<line x1="300.5910265157677" y1="425.0" x2="305.0" y2="420.64244532678094" stroke="red" stroke-width="3"/>
<line x1="300.5910265157677" y1="425.0" x2="300.0" y2="425.5258776615462" stroke="red" stroke-width="3"/>
<line x1="305.0" y1="357.00447102478597" x2="309.43346883812876" y2="360.0" stroke="red" stroke-width="3"/>
<line x1="309.43346883812876" y1="360.0" x2="310.0" y2="360.46453328209935" stroke="red" stroke-width="3"/>
<line x1="305.70603942864625" y1="420.0" x2="310.0" y2="415.6161134837814" stroke="red" stroke-width="3"/>
<line x1="305.70603942864625" y1="420.0" x2="305.0" y2="420.64244532678094" stroke="red" stroke-width="3"/>
<line x1="310.0" y1="360.46453328209935" x2="315.0" y2="363.982470842438" stroke="red" stroke-width="3"/>
<line x1="310.6713765537483" y1="415.0" x2="315.0" y2="410.48195144963785" stroke="red" stroke-width="3"/>
<line x1="310.6713765537483" y1="415.0" x2="310.0" y2="415.6161134837814" stroke="red" stroke-width="3"/>
<line x1="315.0" y1="363.982470842438" x2="316.754269418873" y2="365.0" stroke="red" stroke-width="3"/>
<line x1="316.754269418873" y1="365.0" x2="320.0" y2="367.4333908958136" stroke="red" stroke-width="3"/>
<line x1="315.5304321513907" y1="410.0" x2="320.0" y2="405.29111351442214" stroke="red" stroke-width="3"/>
<line x1="315.5304321513907" y1="410.0" x2="315.0" y2="410.48195144963785" stroke="red" stroke-width="3"/>
<line x1="320.0" y1="367.4333908958136" x2="324.33903688254867" y2="370.0" stroke="red" stroke-width="3"/>
<line x1="324.33903688254867" y1="370.0" x2="325.0" y2="370.5620063985285" stroke="red" stroke-width="3"/>
<line x1="320.33229816862007" y1="405.0" x2="325.0" y2="400.119891086372" stroke="red" stroke-width="3"/>
<line x1="320.33229816862007" y1="405.0" x2="320.0" y2="405.29111351442214" stroke="red" stroke-width="3"/>
<line x1="325.0" y1="370.5620063985285" x2="330.0" y2="373.6498550041785" stroke="red" stroke-width="3"/>
<line x1="325.14820403512175" y1="400.0" x2="330.0" y2="395.094208036939" stroke="red" stroke-width="3"/>
<line x1="325.14820403512175" y1="400.0" x2="325.0" y2="400.119891086372" stroke="red" stroke-width="3"/>
<line x1="330.0" y1="373.6498550041785" x2="333.6400843616273" y2="375.0" stroke="red" stroke-width="3"/>
<line x1="333.6400843616273" y1="375.0" x2="335.0" y2="376.01744397854225" stroke="red" stroke-width="3"/>
<line x1="330.13750092391695" y1="395.0" x2="335.0" y2="390.47648865293934" stroke="red" stroke-width="3"/>
<line x1="330.13750092391695" y1="395.0" x2="330.0" y2="395.094208036939" stroke="red" stroke-width="3"/>
<line x1="335.0" y1="376.01744397854225" x2="340.0" y2="377.0100040992355" stroke="red" stroke-width="3"/>
<line x1="336.062777112328" y1="390.0" x2="340.0" y2="387.1278984290347" stroke="red" stroke-width="3"/>
<line x1="336.062777112328" y1="390.0" x2="335.0" y2="390.47648865293934" stroke="red" stroke-width="3"/>
<line x1="343.2963988139892" y1="375.0" x2="345.0" y2="374.4720906139443" stroke="red" stroke-width="3"/>
<line x1="343.2963988139892" y1="375.0" x2="340.0" y2="377.0100040992355" stroke="red" stroke-width="3"/>
<line x1="340.0" y1="387.1278984290347" x2="345.0" y2="387.13126750499373" stroke="red" stroke-width="3"/>
<line x1="345.0" y1="374.4720906139443" x2="350.0" y2="370.4460721349805" stroke="red" stroke-width="3"/>
<line x1="345.0" y1="387.13126750499373" x2="350.0" y2="389.13129123131745" stroke="red" stroke-width="3"/>
<line x1="350.32268441502845" y1="370.0" x2="355.0" y2="366.0609324944147" stroke="red" stroke-width="3"/>
<line x1="350.32268441502845" y1="370.0" x2="350.0" y2="370.4460721349805" stroke="red" stroke-width="3"/>
<line x1="350.0" y1="389.13129123131745" x2="351.25454635979935" y2="390.0" stroke="red" stroke-width="3"/>
<line x1="351.25454635979935" y1="390.0" x2="355.0" y2="391.39107893858954" stroke="red" stroke-width="3"/>
<line x1="355.88390202059304" y1="365.0" x2="360.0" y2="361.5987341714957" stroke="red" stroke-width="3"/>
<line x1="355.88390202059304" y1="365.0" x2="355.0" y2="366.0609324944147" stroke="red" stroke-width="3"/>
<line x1="355.0" y1="391.39107893858954" x2="360.0" y2="393.8003171039907" stroke="red" stroke-width="3"/>
<line x1="361.50232105505097" y1="360.0" x2="365.0" y2="357.26922915926" stroke="red" stroke-width="3"/>
<line x1="361.50232105505097" y1="360.0" x2="360.0" y2="361.5987341714957" stroke="red" stroke-width="3"/>
<line x1="360.0" y1="393.8003171039907" x2="362.0993696715636" y2="395.0" stroke="red" stroke-width="3"/>
<line x1="362.0993696715636" y1="395.0" x2="365.0" y2="396.13089825795277" stroke="red" stroke-width="3"/>
<line x1="367.412983432271" y1="355.0" x2="370.0" y2="353.1439286934714" stroke="red" stroke-width="3"/>
<line x1="367.412983432271" y1="355.0" x2="365.0" y2="357.26922915926" stroke="red" stroke-width="3"/>
<line x1="365.0" y1="396.13089825795277" x2="370.0" y2="398.302189917467" stroke="red" stroke-width="3"/>
<line x1="373.8350066215183" y1="350.0" x2="375.0" y2="349.2512865160722" stroke="red" stroke-width="3"/>
<line x1="373.8350066215183" y1="350.0" x2="370.0" y2="353.1439286934714" stroke="red" stroke-width="3"/>
<line x1="370.0" y1="398.302189917467" x2="373.79894311618165" y2="400.0" stroke="red" stroke-width="3"/>
<line x1="373.79894311618165" y1="400.0" x2="375.0" y2="400.40506764063423" stroke="red" stroke-width="3"/>
<line x1="375.0" y1="349.2512865160722" x2="380.0" y2="345.7237372004057" stroke="red" stroke-width="3"/>
<line x1="375.0" y1="400.40506764063423" x2="380.0" y2="402.19401752539636" stroke="red" stroke-width="3"/>
<line x1="380.9566341058006" y1="345.0" x2="385.0" y2="342.57343536758094" stroke="red" stroke-width="3"/>
<line x1="380.9566341058006" y1="345.0" x2="380.0" y2="345.7237372004057" stroke="red" stroke-width="3"/>
<line x1="380.0" y1="402.19401752539636" x2="385.0" y2="403.8771626395764" stroke="red" stroke-width="3"/>
<line x1="389.243513072636" y1="340.0" x2="390.0" y2="339.6283203097031" stroke="red" stroke-width="3"/>
<line x1="389.243513072636" y1="340.0" x2="385.0" y2="342.57343536758094" stroke="red" stroke-width="3"/>
<line x1="385.0" y1="403.8771626395764" x2="388.59333114028084" y2="405.0" stroke="red" stroke-width="3"/>
<line x1="388.59333114028084" y1="405.0" x2="390.0" y2="405.3547086810419" stroke="red" stroke-width="3"/>
<line x1="390.0" y1="339.6283203097031" x2="395.0" y2="337.16680578918374" stroke="red" stroke-width="3"/>
<line x1="390.0" y1="405.3547086810419" x2="395.0" y2="406.53725276404606" stroke="red" stroke-width="3"/>
<line x1="399.7685739086783" y1="335.0" x2="400.0" y2="334.9133479791131" stroke="red" stroke-width="3"/>
<line x1="399.7685739086783" y1="335.0" x2="395.0" y2="337.16680578918374" stroke="red" stroke-width="3"/>
<line x1="395.0" y1="406.53725276404606" x2="400.0" y2="407.51286926310337" stroke="red" stroke-width="3"/>
<line x1="400.0" y1="334.9133479791131" x2="405.0" y2="333.1630431567525" stroke="red" stroke-width="3"/>
<line x1="400.0" y1="407.51286926310337" x2="405.0" y2="408.249260239117" stroke="red" stroke-width="3"/>
<line x1="405.0" y1="333.1630431567525" x2="410.0" y2="331.708614576856" stroke="red" stroke-width="3"/>
<line x1="405.0" y1="408.249260239117" x2="410.0" y2="408.7192620088838" stroke="red" stroke-width="3"/>
<line x1="410.0" y1="331.708614576856" x2="415.0" y2="330.6027077935859" stroke="red" stroke-width="3"/>
<line x1="410.0" y1="408.7192620088838" x2="415.0" y2="408.8991821560074" stroke="red" stroke-width="3"/>
<line x1="419.1766212396442" y1="330.0" x2="420.0" y2="329.89887800919877" stroke="red" stroke-width="3"/>
<line x1="419.1766212396442" y1="330.0" x2="415.0" y2="330.6027077935859" stroke="red" stroke-width="3"/>
<line x1="415.0" y1="408.8991821560074" x2="420.0" y2="408.7666711785377" stroke="red" stroke-width="3"/>
<line x1="420.0" y1="329.89887800919877" x2="425.0" y2="329.63665774927875" stroke="red" stroke-width="3"/>
<line x1="420.0" y1="408.7666711785377" x2="425.0" y2="408.2980674592662" stroke="red" stroke-width="3"/>
<line x1="425.0" y1="329.63665774927875" x2="430.0" y2="329.793387828898" stroke="red" stroke-width="3"/>
<line x1="425.0" y1="408.2980674592662" x2="430.0" y2="407.4653002943767" stroke="red" stroke-width="3"/>
<line x1="430.0" y1="329.793387828898" x2="431.63828298626305" y2="330.0" stroke="red" stroke-width="3"/>
<line x1="431.63828298626305" y1="330.0" x2="435.0" y2="330.4377377581568" stroke="red" stroke-width="3"/>
<line x1="430.0" y1="407.4653002943767" x2="435.0" y2="406.23266691318895" stroke="red" stroke-width="3"/>
<line x1="435.0" y1="330.4377377581568" x2="440.0" y2="331.6291709046268" stroke="red" stroke-width="3"/>
<line x1="438.6236049794323" y1="405.0" x2="440.0" y2="404.53202432668104" stroke="red" stroke-width="3"/>
<line x1="438.6236049794323" y1="405.0" x2="435.0" y2="406.23266691318895" stroke="red" stroke-width="3"/>
<line x1="440.0" y1="331.6291709046268" x2="445.0" y2="333.3994171509127" stroke="red" stroke-width="3"/>
<line x1="440.0" y1="404.53202432668104" x2="445.0" y2="402.24242940624197" stroke="red" stroke-width="3"/>
<line x1="445.0" y1="333.3994171509127" x2="448.2924635548401" y2="335.0" stroke="red" stroke-width="3"/>
<line x1="448.2924635548401" y1="335.0" x2="450.0" y2="335.8955018803757" stroke="red" stroke-width="3"/>
<line x1="448.84130023789066" y1="400.0" x2="450.0" y2="399.29771319214586" stroke="red" stroke-width="3"/>
<line x1="448.84130023789066" y1="400.0" x2="445.0" y2="402.24242940624197" stroke="red" stroke-width="3"/>
<line x1="450.0" y1="335.8955018803757" x2="455.0" y2="339.358470407657" stroke="red" stroke-width="3"/>
<line x1="450.0" y1="399.29771319214586" x2="455.0" y2="395.4245986508682" stroke="red" stroke-width="3"/>
<line x1="455.0" y1="339.358470407657" x2="455.7341166999991" y2="340.0" stroke="red" stroke-width="3"/>
<line x1="455.7341166999991" y1="340.0" x2="460.0" y2="344.2753929438176" stroke="red" stroke-width="3"/>
<line x1="455.4417207655659" y1="395.0" x2="460.0" y2="390.16001272811013" stroke="red" stroke-width="3"/>
<line x1="455.4417207655659" y1="395.0" x2="455.0" y2="395.4245986508682" stroke="red" stroke-width="3"/>
<line x1="460.0" y1="344.2753929438176" x2="460.5898899086003" y2="345.0" stroke="red" stroke-width="3"/>
<line x1="460.5898899086003" y1="345.0" x2="463.9257208072865" y2="350.0" stroke="red" stroke-width="3"/>
<line x1="463.9257208072865" y1="350.0" x2="465.0" y2="352.1369654633206" stroke="red" stroke-width="3"/>
<line x1="463.4171316172995" y1="385.0" x2="465.0" y2="381.9517021604527" stroke="red" stroke-width="3"/>
<line x1="463.4171316172995" y1="385.0" x2="460.12326226750594" y2="390.0" stroke="red" stroke-width="3"/>
<line x1="460.12326226750594" y1="390.0" x2="460.0" y2="390.16001272811013" stroke="red" stroke-width="3"/>
<line x1="465.0" y1="352.1369654633206" x2="466.2154031853611" y2="355.0" stroke="red" stroke-width="3"/>
<line x1="466.2154031853611" y1="355.0" x2="467.60938544160155" y2="360.0" stroke="red" stroke-width="3"/>
<line x1="467.60938544160155" y1="360.0" x2="468.2615894662339" y2="365.0" stroke="red" stroke-width="3"/>
<line x1="468.2615894662339" y1="365.0" x2="468.17671020760264" y2="370.0" stroke="red" stroke-width="3"/>
<line x1="468.17671020760264" y1="370.0" x2="467.3651661893627" y2="375.0" stroke="red" stroke-width="3"/>
<line x1="467.3651661893627" y1="375.0" x2="465.84562704896354" y2="380.0" stroke="red" stroke-width="3"/>
<line x1="465.84562704896354" y1="380.0" x2="465.0" y2="381.9517021604527" stroke="red" stroke-width="3"/>
<circle cx="154" cy="368" r="3" fill="black" />
<circle cx="15" cy="449" r="3" fill="black" />
<circle cx="443" cy="365" r="3" fill="black" />
<circle cx="242" cy="471" r="3" fill="black" />
</svg>